<svg xmlns="http://www.w3.org/2000/svg" viewBox="0 0 512 512">
<!-- Tradeify app icon: their "tdfy" mark. The letters are the same outlines
     as tradeify.svg -- lifted from that wordmark, so the font matches -- and
     placed as the firm's own 512px icon places them. The tile is the
     superellipse its edge measures (exponent ~5), in its green gradient. -->
<linearGradient id="a" x1="256" x2="256" y1="1" y2="511" gradientUnits="userSpaceOnUse"><stop offset="0" stop-color="#12fd5c"/><stop offset="1" stop-color="#01e83c"/></linearGradient><path fill="url(#a)" d="M511 256c0 34.97.41 70.11-.58 105.08-.47 17.01-1.32 34.15-3.8 51-3.54 24.08-10.67 48.56-28.32 66.22-17.66 17.65-42.14 24.78-66.22 28.32-16.85 2.48-33.99 3.33-51 3.8-34.97.99-70.11.58-105.08.58s-70.11.41-105.08-.58c-17.01-.47-34.15-1.32-51-3.8-24.08-3.54-48.56-10.67-66.22-28.32-17.65-17.66-24.78-42.14-28.32-66.22-2.48-16.85-3.33-33.99-3.8-51C.59 326.11 1 290.97 1 256s-.41-70.11.58-105.08c.47-17.01 1.32-34.15 3.8-51C8.92 75.84 16.05 51.36 33.7 33.7 51.36 16.05 75.84 8.92 99.92 5.38c16.85-2.48 33.99-3.33 51-3.8C185.89.59 221.03 1 256 1c34.56 0 69.28-.38 103.85.54 16.77.45 33.65 1.25 50.28 3.56 23.62 3.29 47.96 9.88 65.91 26.44 17.91 16.52 25.74 39.64 29.74 63.08 2.74 16.09 3.8 32.51 4.4 48.8 1.15 30.88.82 61.92.82 92.81Z"/><path fill="#011e09" d="M117.98 325.64q-12.7 0-19.16-6.25-6.26-6.26-6.26-19.37v-58.08H73V221.6h19.56v-28.17l25.81-4.3v32.47h24.26v20.34h-24.06v52.22q0 5.08 2.35 7.43 2.34 2.15 7.23 2.15h14.67v21.9zM199.64 326.9q-14.28 0-25.23-6.46-10.76-6.65-16.82-18.77-5.87-12.33-5.87-28.75t5.87-28.56q6.06-12.32 17.01-18.77 10.96-6.65 25.23-6.65 13.31 0 23.47 5.67 10.16 5.47 14.48 15.45h.2v-57.7h26.2v142.58h-24.84l-.78-19.16h-.4q-4.5 9.97-14.66 15.64-9.97 5.48-23.86 5.48m8.4-20.54q9 0 15.85-3.9a26 26 0 0 0 10.37-10.57q3.7-6.84 3.71-15.65v-6.45q0-8.61-3.52-15.45a25.7 25.7 0 0 0-10.36-10.76q-6.66-4.1-15.85-4.1-9.39 0-16.23 4.1-6.65 3.92-10.17 11.54-3.52 7.44-3.52 17.8 0 15.64 7.63 24.64 7.82 8.8 22.1 8.8M291.4 241.24h-18.58V220.7h18.58v-11.34q0-13.11 7.83-19.95 7.82-7.04 22.1-7.04h21.9v18.18h-13.89q-6.25 0-9.19 2.74-2.74 2.55-2.74 8.41v9h23.47v20.54h-23.47v83.7h-26zm48.5 95.24h13.5q7.83 0 12.13-2.74 4.5-2.73 7.23-8.8l4.9-11.34v7.04l-46.16-99.75h28.36l19.36 47.14 9.78 21.9h.2l8.99-21.9 18.38-47.14h27.58l-47.33 110.9q-3.72 9.2-9.2 14.86a30.5 30.5 0 0 1-12.9 8.22q-7.44 2.73-17.8 2.73h-17.01z"/></svg>